<?xml version="1.0" encoding="UTF-8" standalone="no"?><svg xmlns="http://www.w3.org/2000/svg" xmlns:xlink="http://www.w3.org/1999/xlink" contentStyleType="text/css" height="699px" preserveAspectRatio="none" style="width:1011px;height:699px;background:#FFFFFF;" version="1.1" viewBox="0 0 1011 699" width="1011px" zoomAndPan="magnify"><defs/><g><!--MD5=[c60679dfbe80eab0cae5e3add7b10464]
cluster src--><g id="cluster_src"><path d="M18.55,6.602 L39.55,6.602 A3.75,3.75 0 0 1 42.05,9.102 L49.05,31.6699 L1001.55,31.6699 A2.5,2.5 0 0 1 1004.05,34.1699 L1004.05,690.102 A2.5,2.5 0 0 1 1001.55,692.602 L18.55,692.602 A2.5,2.5 0 0 1 16.05,690.102 L16.05,9.102 A2.5,2.5 0 0 1 18.55,6.602 " style="stroke:#000000;stroke-width:1.5;fill:none;"/><line style="stroke:#000000;stroke-width:1.5;fill:none;" x1="16.05" x2="49.05" y1="31.6699" y2="31.6699"/><text fill="#000000" font-family="sans-serif" font-size="14" font-weight="bold" lengthAdjust="spacing" textLength="20" x="20.05" y="23.5679">src</text></g><!--MD5=[73f402616c281b3a8da2d4842412168a]
cluster ui.package--><g id="cluster_ui.package"><path d="M50.55,124.602 L126.55,124.602 A3.75,3.75 0 0 1 129.05,127.102 L136.05,149.6699 L358.55,149.6699 A2.5,2.5 0 0 1 361.05,152.1699 L361.05,348.102 A2.5,2.5 0 0 1 358.55,350.602 L50.55,350.602 A2.5,2.5 0 0 1 48.05,348.102 L48.05,127.102 A2.5,2.5 0 0 1 50.55,124.602 " style="stroke:#000000;stroke-width:1.5;fill:none;"/><line style="stroke:#000000;stroke-width:1.5;fill:none;" x1="48.05" x2="136.05" y1="149.6699" y2="149.6699"/><text fill="#000000" font-family="sans-serif" font-size="14" font-weight="bold" lengthAdjust="spacing" textLength="75" x="52.05" y="141.5679">ui.package</text></g><!--MD5=[38f4936ac82e315a639a548dbdbbb686]
cluster resources--><g id="cluster_resources"><path d="M63.55,390.602 L131.55,390.602 A3.75,3.75 0 0 1 134.05,393.102 L141.05,415.6699 L485.55,415.6699 A2.5,2.5 0 0 1 488.05,418.1699 L488.05,506.102 A2.5,2.5 0 0 1 485.55,508.602 L63.55,508.602 A2.5,2.5 0 0 1 61.05,506.102 L61.05,393.102 A2.5,2.5 0 0 1 63.55,390.602 " style="stroke:#000000;stroke-width:1.5;fill:none;"/><line style="stroke:#000000;stroke-width:1.5;fill:none;" x1="61.05" x2="141.05" y1="415.6699" y2="415.6699"/><text fill="#000000" font-family="sans-serif" font-size="14" font-weight="bold" lengthAdjust="spacing" textLength="67" x="65.05" y="407.5679">resources</text></g><!--MD5=[e471781225fc0f8fbd677bbc1a50d018]
cluster engine--><g id="cluster_engine"><path d="M522.55,108.602 L570.55,108.602 A3.75,3.75 0 0 1 573.05,111.102 L580.05,133.6699 L977.55,133.6699 A2.5,2.5 0 0 1 980.05,136.1699 L980.05,666.102 A2.5,2.5 0 0 1 977.55,668.602 L522.55,668.602 A2.5,2.5 0 0 1 520.05,666.102 L520.05,111.102 A2.5,2.5 0 0 1 522.55,108.602 " style="stroke:#000000;stroke-width:1.5;fill:none;"/><line style="stroke:#000000;stroke-width:1.5;fill:none;" x1="520.05" x2="580.05" y1="133.6699" y2="133.6699"/><text fill="#000000" font-family="sans-serif" font-size="14" font-weight="bold" lengthAdjust="spacing" textLength="47" x="524.05" y="125.5679">engine</text></g><!--MD5=[f205256e4b2df5f7b14b531fdd422ede]
class start--><g id="elem_start"><rect codeLine="3" fill="#F1F1F1" height="48" id="start" rx="2.5" ry="2.5" style="stroke:#181818;stroke-width:0.5;" width="63" x="258.55" y="44.602"/><ellipse cx="273.55" cy="60.602" fill="#ADD1B2" rx="11" ry="11" style="stroke:#181818;stroke-width:1.0;"/><path d="M273.0188,67.5239 Q271.2688,67.5239 270.1281,66.7895 Q269.0031,66.0395 268.4406,64.6957 Q267.8938,63.3364 267.8938,61.5395 Q267.8938,59.5082 268.55,58.0551 Q269.2063,56.602 270.4875,55.8207 Q271.7688,55.0395 273.6438,55.0395 Q274.5344,55.0395 275.2063,55.227 Q275.8781,55.3989 276.5656,55.7426 L275.7531,57.7582 Q275.1281,57.4457 274.5813,57.3207 Q274.05,57.1957 273.5656,57.1957 Q272.3938,57.1957 271.6906,57.727 Q270.9875,58.2582 270.6906,59.2114 Q270.3938,60.1645 270.3938,61.4301 Q270.3938,63.4457 271.1125,64.4145 Q271.8313,65.3676 273.425,65.3676 Q274.0188,65.3676 274.6438,65.2114 Q275.2688,65.0551 276.0969,64.6801 L276.0969,66.8989 Q275.3625,67.2114 274.5656,67.3676 Q273.7844,67.5239 273.0188,67.5239 Z " fill="#000000"/><text fill="#000000" font-family="sans-serif" font-size="14" lengthAdjust="spacing" textLength="31" x="287.55" y="66.034">start</text><line style="stroke:#181818;stroke-width:0.5;" x1="259.55" x2="320.55" y1="76.602" y2="76.602"/><line style="stroke:#181818;stroke-width:0.5;" x1="259.55" x2="320.55" y1="84.602" y2="84.602"/></g><!--MD5=[589778a86542334cbbe24d2c132e4f67]
class ui--><g id="elem_ui"><rect codeLine="10" fill="#F1F1F1" height="48" id="ui" rx="2.5" ry="2.5" style="stroke:#181818;stroke-width:0.5;" width="45" x="267.55" y="170.602"/><ellipse cx="282.55" cy="186.602" fill="#ADD1B2" rx="11" ry="11" style="stroke:#181818;stroke-width:1.0;"/><path d="M282.0188,193.5239 Q280.2688,193.5239 279.1281,192.7895 Q278.0031,192.0395 277.4406,190.6957 Q276.8938,189.3364 276.8938,187.5395 Q276.8938,185.5082 277.55,184.0551 Q278.2063,182.602 279.4875,181.8207 Q280.7688,181.0395 282.6438,181.0395 Q283.5344,181.0395 284.2063,181.227 Q284.8781,181.3989 285.5656,181.7426 L284.7531,183.7582 Q284.1281,183.4457 283.5813,183.3207 Q283.05,183.1957 282.5656,183.1957 Q281.3938,183.1957 280.6906,183.727 Q279.9875,184.2582 279.6906,185.2114 Q279.3938,186.1645 279.3938,187.4301 Q279.3938,189.4457 280.1125,190.4145 Q280.8313,191.3676 282.425,191.3676 Q283.0188,191.3676 283.6438,191.2114 Q284.2688,191.0551 285.0969,190.6801 L285.0969,192.8989 Q284.3625,193.2114 283.5656,193.3676 Q282.7844,193.5239 282.0188,193.5239 Z " fill="#000000"/><text fill="#000000" font-family="sans-serif" font-size="14" lengthAdjust="spacing" textLength="13" x="296.55" y="192.034">ui</text><line style="stroke:#181818;stroke-width:0.5;" x1="268.55" x2="311.55" y1="202.602" y2="202.602"/><line style="stroke:#181818;stroke-width:0.5;" x1="268.55" x2="311.55" y1="210.602" y2="210.602"/></g><!--MD5=[ff175e0fdad1596be5d9ed6b2067caaf]
class Selection_reader--><g id="elem_Selection_reader"><rect codeLine="11" fill="#F1F1F1" height="48" id="Selection_reader" rx="2.5" ry="2.5" style="stroke:#181818;stroke-width:0.5;" width="144" x="72.05" y="278.602"/><ellipse cx="87.05" cy="294.602" fill="#ADD1B2" rx="11" ry="11" style="stroke:#181818;stroke-width:1.0;"/><path d="M86.5188,301.5239 Q84.7688,301.5239 83.6281,300.7895 Q82.5031,300.0395 81.9406,298.6957 Q81.3938,297.3364 81.3938,295.5395 Q81.3938,293.5082 82.05,292.0551 Q82.7063,290.602 83.9875,289.8207 Q85.2688,289.0395 87.1438,289.0395 Q88.0344,289.0395 88.7063,289.227 Q89.3781,289.3989 90.0656,289.7426 L89.2531,291.7582 Q88.6281,291.4457 88.0813,291.3207 Q87.55,291.1957 87.0656,291.1957 Q85.8938,291.1957 85.1906,291.727 Q84.4875,292.2582 84.1906,293.2114 Q83.8938,294.1645 83.8938,295.4301 Q83.8938,297.4457 84.6125,298.4145 Q85.3313,299.3676 86.925,299.3676 Q87.5188,299.3676 88.1438,299.2114 Q88.7688,299.0551 89.5969,298.6801 L89.5969,300.8989 Q88.8625,301.2114 88.0656,301.3676 Q87.2844,301.5239 86.5188,301.5239 Z " fill="#000000"/><text fill="#000000" font-family="sans-serif" font-size="14" lengthAdjust="spacing" textLength="112" x="101.05" y="300.034">Selection_reader</text><line style="stroke:#181818;stroke-width:0.5;" x1="73.05" x2="215.05" y1="310.602" y2="310.602"/><line style="stroke:#181818;stroke-width:0.5;" x1="73.05" x2="215.05" y1="318.602" y2="318.602"/></g><!--MD5=[f00dbe8c0302c6aec2cb26b3c659c8fc]
class Report--><g id="elem_Report"><rect codeLine="12" fill="#F1F1F1" height="48" id="Report" rx="2.5" ry="2.5" style="stroke:#181818;stroke-width:0.5;" width="77" x="251.55" y="278.602"/><ellipse cx="266.55" cy="294.602" fill="#ADD1B2" rx="11" ry="11" style="stroke:#181818;stroke-width:1.0;"/><path d="M266.0188,301.5239 Q264.2688,301.5239 263.1281,300.7895 Q262.0031,300.0395 261.4406,298.6957 Q260.8938,297.3364 260.8938,295.5395 Q260.8938,293.5082 261.55,292.0551 Q262.2063,290.602 263.4875,289.8207 Q264.7688,289.0395 266.6438,289.0395 Q267.5344,289.0395 268.2063,289.227 Q268.8781,289.3989 269.5656,289.7426 L268.7531,291.7582 Q268.1281,291.4457 267.5813,291.3207 Q267.05,291.1957 266.5656,291.1957 Q265.3938,291.1957 264.6906,291.727 Q263.9875,292.2582 263.6906,293.2114 Q263.3938,294.1645 263.3938,295.4301 Q263.3938,297.4457 264.1125,298.4145 Q264.8313,299.3676 266.425,299.3676 Q267.0188,299.3676 267.6438,299.2114 Q268.2688,299.0551 269.0969,298.6801 L269.0969,300.8989 Q268.3625,301.2114 267.5656,301.3676 Q266.7844,301.5239 266.0188,301.5239 Z " fill="#000000"/><text fill="#000000" font-family="sans-serif" font-size="14" lengthAdjust="spacing" textLength="45" x="280.55" y="300.034">Report</text><line style="stroke:#181818;stroke-width:0.5;" x1="252.55" x2="327.55" y1="310.602" y2="310.602"/><line style="stroke:#181818;stroke-width:0.5;" x1="252.55" x2="327.55" y1="318.602" y2="318.602"/></g><!--MD5=[e4fcc2874b6199299124ba3224ec1c3d]
class Rules--><g id="elem_Rules"><rect codeLine="15" fill="#F1F1F1" height="48" id="Rules" rx="2.5" ry="2.5" style="stroke:#181818;stroke-width:0.5;" width="69" x="394.55" y="436.602"/><ellipse cx="409.55" cy="452.602" fill="#ADD1B2" rx="11" ry="11" style="stroke:#181818;stroke-width:1.0;"/><path d="M409.0188,459.5239 Q407.2688,459.5239 406.1281,458.7895 Q405.0031,458.0395 404.4406,456.6957 Q403.8938,455.3364 403.8938,453.5395 Q403.8938,451.5082 404.55,450.0551 Q405.2063,448.602 406.4875,447.8207 Q407.7688,447.0395 409.6438,447.0395 Q410.5344,447.0395 411.2063,447.227 Q411.8781,447.3989 412.5656,447.7426 L411.7531,449.7582 Q411.1281,449.4457 410.5813,449.3207 Q410.05,449.1957 409.5656,449.1957 Q408.3938,449.1957 407.6906,449.727 Q406.9875,450.2582 406.6906,451.2114 Q406.3938,452.1645 406.3938,453.4301 Q406.3938,455.4457 407.1125,456.4145 Q407.8313,457.3676 409.425,457.3676 Q410.0188,457.3676 410.6438,457.2114 Q411.2688,457.0551 412.0969,456.6801 L412.0969,458.8989 Q411.3625,459.2114 410.5656,459.3676 Q409.7844,459.5239 409.0188,459.5239 Z " fill="#000000"/><text fill="#000000" font-family="sans-serif" font-size="14" lengthAdjust="spacing" textLength="37" x="423.55" y="458.034">Rules</text><line style="stroke:#181818;stroke-width:0.5;" x1="395.55" x2="462.55" y1="468.602" y2="468.602"/><line style="stroke:#181818;stroke-width:0.5;" x1="395.55" x2="462.55" y1="476.602" y2="476.602"/></g><!--MD5=[2e76b98b68763631764ffbf66b6ff9be]
class RPS_Object--><g id="elem_RPS_Object"><rect codeLine="16" fill="#F1F1F1" height="48" id="RPS_Object" rx="2.5" ry="2.5" style="stroke:#181818;stroke-width:0.5;" width="107" x="252.55" y="436.602"/><ellipse cx="267.55" cy="452.602" fill="#ADD1B2" rx="11" ry="11" style="stroke:#181818;stroke-width:1.0;"/><path d="M267.0188,459.5239 Q265.2688,459.5239 264.1281,458.7895 Q263.0031,458.0395 262.4406,456.6957 Q261.8938,455.3364 261.8938,453.5395 Q261.8938,451.5082 262.55,450.0551 Q263.2063,448.602 264.4875,447.8207 Q265.7688,447.0395 267.6438,447.0395 Q268.5344,447.0395 269.2063,447.227 Q269.8781,447.3989 270.5656,447.7426 L269.7531,449.7582 Q269.1281,449.4457 268.5813,449.3207 Q268.05,449.1957 267.5656,449.1957 Q266.3938,449.1957 265.6906,449.727 Q264.9875,450.2582 264.6906,451.2114 Q264.3938,452.1645 264.3938,453.4301 Q264.3938,455.4457 265.1125,456.4145 Q265.8313,457.3676 267.425,457.3676 Q268.0188,457.3676 268.6438,457.2114 Q269.2688,457.0551 270.0969,456.6801 L270.0969,458.8989 Q269.3625,459.2114 268.5656,459.3676 Q267.7844,459.5239 267.0188,459.5239 Z " fill="#000000"/><text fill="#000000" font-family="sans-serif" font-size="14" lengthAdjust="spacing" textLength="75" x="281.55" y="458.034">RPS_Object</text><line style="stroke:#181818;stroke-width:0.5;" x1="253.55" x2="358.55" y1="468.602" y2="468.602"/><line style="stroke:#181818;stroke-width:0.5;" x1="253.55" x2="358.55" y1="476.602" y2="476.602"/></g><!--MD5=[c0d827a8f741ed2c900c5402788ad16b]
class Instructions--><g id="elem_Instructions"><rect codeLine="17" fill="#F1F1F1" height="48" id="Instructions" rx="2.5" ry="2.5" style="stroke:#181818;stroke-width:0.5;" width="113" x="104.55" y="436.602"/><ellipse cx="119.55" cy="452.602" fill="#ADD1B2" rx="11" ry="11" style="stroke:#181818;stroke-width:1.0;"/><path d="M119.0188,459.5239 Q117.2688,459.5239 116.1281,458.7895 Q115.0031,458.0395 114.4406,456.6957 Q113.8938,455.3364 113.8938,453.5395 Q113.8938,451.5082 114.55,450.0551 Q115.2063,448.602 116.4875,447.8207 Q117.7688,447.0395 119.6438,447.0395 Q120.5344,447.0395 121.2063,447.227 Q121.8781,447.3989 122.5656,447.7426 L121.7531,449.7582 Q121.1281,449.4457 120.5813,449.3207 Q120.05,449.1957 119.5656,449.1957 Q118.3938,449.1957 117.6906,449.727 Q116.9875,450.2582 116.6906,451.2114 Q116.3938,452.1645 116.3938,453.4301 Q116.3938,455.4457 117.1125,456.4145 Q117.8313,457.3676 119.425,457.3676 Q120.0188,457.3676 120.6438,457.2114 Q121.2688,457.0551 122.0969,456.6801 L122.0969,458.8989 Q121.3625,459.2114 120.5656,459.3676 Q119.7844,459.5239 119.0188,459.5239 Z " fill="#000000"/><text fill="#000000" font-family="sans-serif" font-size="14" lengthAdjust="spacing" textLength="81" x="133.55" y="458.034">Instructions</text><line style="stroke:#181818;stroke-width:0.5;" x1="105.55" x2="216.55" y1="468.602" y2="468.602"/><line style="stroke:#181818;stroke-width:0.5;" x1="105.55" x2="216.55" y1="476.602" y2="476.602"/></g><!--MD5=[2cb47ba637a0d19583e6199456f6ad0b]
class Player--><g id="elem_Player"><rect fill="#F1F1F1" height="48" id="Player" rx="2.5" ry="2.5" style="stroke:#181818;stroke-width:0.5;" width="73" x="750.05" y="584.602"/><ellipse cx="765.05" cy="600.602" fill="#ADD1B2" rx="11" ry="11" style="stroke:#181818;stroke-width:1.0;"/><path d="M764.5188,607.5239 Q762.7688,607.5239 761.6281,606.7895 Q760.5031,606.0395 759.9406,604.6957 Q759.3938,603.3364 759.3938,601.5395 Q759.3938,599.5082 760.05,598.0551 Q760.7063,596.602 761.9875,595.8207 Q763.2688,595.0395 765.1438,595.0395 Q766.0344,595.0395 766.7063,595.227 Q767.3781,595.3989 768.0656,595.7426 L767.2531,597.7582 Q766.6281,597.4457 766.0813,597.3207 Q765.55,597.1957 765.0656,597.1957 Q763.8938,597.1957 763.1906,597.727 Q762.4875,598.2582 762.1906,599.2114 Q761.8938,600.1645 761.8938,601.4301 Q761.8938,603.4457 762.6125,604.4145 Q763.3313,605.3676 764.925,605.3676 Q765.5188,605.3676 766.1438,605.2114 Q766.7688,605.0551 767.5969,604.6801 L767.5969,606.8989 Q766.8625,607.2114 766.0656,607.3676 Q765.2844,607.5239 764.5188,607.5239 Z " fill="#000000"/><text fill="#000000" font-family="sans-serif" font-size="14" lengthAdjust="spacing" textLength="41" x="779.05" y="606.034">Player</text><line style="stroke:#181818;stroke-width:0.5;" x1="751.05" x2="822.05" y1="616.602" y2="616.602"/><line style="stroke:#181818;stroke-width:0.5;" x1="751.05" x2="822.05" y1="624.602" y2="624.602"/></g><!--MD5=[9e12128ab6535316a081b910e014e133]
class SimpleRPS--><g id="elem_SimpleRPS"><rect codeLine="40" fill="#F1F1F1" height="48" id="SimpleRPS" rx="2.5" ry="2.5" style="stroke:#181818;stroke-width:0.5;" width="103" x="560.55" y="278.602"/><ellipse cx="575.55" cy="294.602" fill="#ADD1B2" rx="11" ry="11" style="stroke:#181818;stroke-width:1.0;"/><path d="M575.0188,301.5239 Q573.2688,301.5239 572.1281,300.7895 Q571.0031,300.0395 570.4406,298.6957 Q569.8938,297.3364 569.8938,295.5395 Q569.8938,293.5082 570.55,292.0551 Q571.2063,290.602 572.4875,289.8207 Q573.7688,289.0395 575.6438,289.0395 Q576.5344,289.0395 577.2063,289.227 Q577.8781,289.3989 578.5656,289.7426 L577.7531,291.7582 Q577.1281,291.4457 576.5813,291.3207 Q576.05,291.1957 575.5656,291.1957 Q574.3938,291.1957 573.6906,291.727 Q572.9875,292.2582 572.6906,293.2114 Q572.3938,294.1645 572.3938,295.4301 Q572.3938,297.4457 573.1125,298.4145 Q573.8313,299.3676 575.425,299.3676 Q576.0188,299.3676 576.6438,299.2114 Q577.2688,299.0551 578.0969,298.6801 L578.0969,300.8989 Q577.3625,301.2114 576.5656,301.3676 Q575.7844,301.5239 575.0188,301.5239 Z " fill="#000000"/><text fill="#000000" font-family="sans-serif" font-size="14" lengthAdjust="spacing" textLength="71" x="589.55" y="300.034">SimpleRPS</text><line style="stroke:#181818;stroke-width:0.5;" x1="561.55" x2="662.55" y1="310.602" y2="310.602"/><line style="stroke:#181818;stroke-width:0.5;" x1="561.55" x2="662.55" y1="318.602" y2="318.602"/></g><!--MD5=[d0838c6709787ba8c71320c79f69cd09]
class markovRPS--><g id="elem_markovRPS"><rect fill="#F1F1F1" height="48" id="markovRPS" rx="2.5" ry="2.5" style="stroke:#181818;stroke-width:0.5;" width="106" x="560.05" y="584.602"/><ellipse cx="575.05" cy="600.602" fill="#ADD1B2" rx="11" ry="11" style="stroke:#181818;stroke-width:1.0;"/><path d="M574.5188,607.5239 Q572.7688,607.5239 571.6281,606.7895 Q570.5031,606.0395 569.9406,604.6957 Q569.3938,603.3364 569.3938,601.5395 Q569.3938,599.5082 570.05,598.0551 Q570.7063,596.602 571.9875,595.8207 Q573.2688,595.0395 575.1438,595.0395 Q576.0344,595.0395 576.7063,595.227 Q577.3781,595.3989 578.0656,595.7426 L577.2531,597.7582 Q576.6281,597.4457 576.0813,597.3207 Q575.55,597.1957 575.0656,597.1957 Q573.8938,597.1957 573.1906,597.727 Q572.4875,598.2582 572.1906,599.2114 Q571.8938,600.1645 571.8938,601.4301 Q571.8938,603.4457 572.6125,604.4145 Q573.3313,605.3676 574.925,605.3676 Q575.5188,605.3676 576.1438,605.2114 Q576.7688,605.0551 577.5969,604.6801 L577.5969,606.8989 Q576.8625,607.2114 576.0656,607.3676 Q575.2844,607.5239 574.5188,607.5239 Z " fill="#000000"/><text fill="#000000" font-family="sans-serif" font-size="14" lengthAdjust="spacing" textLength="74" x="589.05" y="606.034">markovRPS</text><line style="stroke:#181818;stroke-width:0.5;" x1="561.05" x2="665.05" y1="616.602" y2="616.602"/><line style="stroke:#181818;stroke-width:0.5;" x1="561.05" x2="665.05" y1="624.602" y2="624.602"/></g><!--MD5=[254bd4b30bebfecf23fade4f1bf7fcac]
class multiAi--><g id="elem_multiAi"><rect fill="#F1F1F1" height="48" id="multiAi" rx="2.5" ry="2.5" style="stroke:#181818;stroke-width:0.5;" width="80" x="597.05" y="436.602"/><ellipse cx="612.05" cy="452.602" fill="#ADD1B2" rx="11" ry="11" style="stroke:#181818;stroke-width:1.0;"/><path d="M611.5188,459.5239 Q609.7688,459.5239 608.6281,458.7895 Q607.5031,458.0395 606.9406,456.6957 Q606.3938,455.3364 606.3938,453.5395 Q606.3938,451.5082 607.05,450.0551 Q607.7063,448.602 608.9875,447.8207 Q610.2688,447.0395 612.1438,447.0395 Q613.0344,447.0395 613.7063,447.227 Q614.3781,447.3989 615.0656,447.7426 L614.2531,449.7582 Q613.6281,449.4457 613.0813,449.3207 Q612.55,449.1957 612.0656,449.1957 Q610.8938,449.1957 610.1906,449.727 Q609.4875,450.2582 609.1906,451.2114 Q608.8938,452.1645 608.8938,453.4301 Q608.8938,455.4457 609.6125,456.4145 Q610.3313,457.3676 611.925,457.3676 Q612.5188,457.3676 613.1438,457.2114 Q613.7688,457.0551 614.5969,456.6801 L614.5969,458.8989 Q613.8625,459.2114 613.0656,459.3676 Q612.2844,459.5239 611.5188,459.5239 Z " fill="#000000"/><text fill="#000000" font-family="sans-serif" font-size="14" lengthAdjust="spacing" textLength="48" x="626.05" y="458.034">multiAi</text><line style="stroke:#181818;stroke-width:0.5;" x1="598.05" x2="676.05" y1="468.602" y2="468.602"/><line style="stroke:#181818;stroke-width:0.5;" x1="598.05" x2="676.05" y1="476.602" y2="476.602"/></g><!--MD5=[fbea4caed7ff835d80dbe7ce455c26f3]
class RockPaperScissors--><g id="elem_RockPaperScissors"><rect codeLine="26" fill="#F1F1F1" height="48" id="RockPaperScissors" rx="2.5" ry="2.5" style="stroke:#181818;stroke-width:0.5;" width="156" x="760.05" y="436.602"/><ellipse cx="775.05" cy="452.602" fill="#ADD1B2" rx="11" ry="11" style="stroke:#181818;stroke-width:1.0;"/><path d="M774.5188,459.5239 Q772.7688,459.5239 771.6281,458.7895 Q770.5031,458.0395 769.9406,456.6957 Q769.3938,455.3364 769.3938,453.5395 Q769.3938,451.5082 770.05,450.0551 Q770.7063,448.602 771.9875,447.8207 Q773.2688,447.0395 775.1438,447.0395 Q776.0344,447.0395 776.7063,447.227 Q777.3781,447.3989 778.0656,447.7426 L777.2531,449.7582 Q776.6281,449.4457 776.0813,449.3207 Q775.55,449.1957 775.0656,449.1957 Q773.8938,449.1957 773.1906,449.727 Q772.4875,450.2582 772.1906,451.2114 Q771.8938,452.1645 771.8938,453.4301 Q771.8938,455.4457 772.6125,456.4145 Q773.3313,457.3676 774.925,457.3676 Q775.5188,457.3676 776.1438,457.2114 Q776.7688,457.0551 777.5969,456.6801 L777.5969,458.8989 Q776.8625,459.2114 776.0656,459.3676 Q775.2844,459.5239 774.5188,459.5239 Z " fill="#000000"/><text fill="#000000" font-family="sans-serif" font-size="14" lengthAdjust="spacing" textLength="124" x="789.05" y="458.034">RockPaperScissors</text><line style="stroke:#181818;stroke-width:0.5;" x1="761.05" x2="915.05" y1="468.602" y2="468.602"/><line style="stroke:#181818;stroke-width:0.5;" x1="761.05" x2="915.05" y1="476.602" y2="476.602"/></g><!--MD5=[d75b0a238b734941260681f0026bbb88]
class Round--><g id="elem_Round"><rect codeLine="27" fill="#F1F1F1" height="48" id="Round" rx="2.5" ry="2.5" style="stroke:#181818;stroke-width:0.5;" width="76" x="746.05" y="278.602"/><ellipse cx="761.05" cy="294.602" fill="#ADD1B2" rx="11" ry="11" style="stroke:#181818;stroke-width:1.0;"/><path d="M760.5188,301.5239 Q758.7688,301.5239 757.6281,300.7895 Q756.5031,300.0395 755.9406,298.6957 Q755.3938,297.3364 755.3938,295.5395 Q755.3938,293.5082 756.05,292.0551 Q756.7063,290.602 757.9875,289.8207 Q759.2688,289.0395 761.1438,289.0395 Q762.0344,289.0395 762.7063,289.227 Q763.3781,289.3989 764.0656,289.7426 L763.2531,291.7582 Q762.6281,291.4457 762.0813,291.3207 Q761.55,291.1957 761.0656,291.1957 Q759.8938,291.1957 759.1906,291.727 Q758.4875,292.2582 758.1906,293.2114 Q757.8938,294.1645 757.8938,295.4301 Q757.8938,297.4457 758.6125,298.4145 Q759.3313,299.3676 760.925,299.3676 Q761.5188,299.3676 762.1438,299.2114 Q762.7688,299.0551 763.5969,298.6801 L763.5969,300.8989 Q762.8625,301.2114 762.0656,301.3676 Q761.2844,301.5239 760.5188,301.5239 Z " fill="#000000"/><text fill="#000000" font-family="sans-serif" font-size="14" lengthAdjust="spacing" textLength="44" x="775.05" y="300.034">Round</text><line style="stroke:#181818;stroke-width:0.5;" x1="747.05" x2="821.05" y1="310.602" y2="310.602"/><line style="stroke:#181818;stroke-width:0.5;" x1="747.05" x2="821.05" y1="318.602" y2="318.602"/></g><!--MD5=[ea2fa1be18d08a0b78f3a7232f7df4ff]
class RoundResult--><g id="elem_RoundResult"><rect codeLine="28" fill="#F1F1F1" height="48" id="RoundResult" rx="2.5" ry="2.5" style="stroke:#181818;stroke-width:0.5;" width="118" x="736.05" y="170.602"/><ellipse cx="751.05" cy="186.602" fill="#ADD1B2" rx="11" ry="11" style="stroke:#181818;stroke-width:1.0;"/><path d="M750.5188,193.5239 Q748.7688,193.5239 747.6281,192.7895 Q746.5031,192.0395 745.9406,190.6957 Q745.3938,189.3364 745.3938,187.5395 Q745.3938,185.5082 746.05,184.0551 Q746.7063,182.602 747.9875,181.8207 Q749.2688,181.0395 751.1438,181.0395 Q752.0344,181.0395 752.7063,181.227 Q753.3781,181.3989 754.0656,181.7426 L753.2531,183.7582 Q752.6281,183.4457 752.0813,183.3207 Q751.55,183.1957 751.0656,183.1957 Q749.8938,183.1957 749.1906,183.727 Q748.4875,184.2582 748.1906,185.2114 Q747.8938,186.1645 747.8938,187.4301 Q747.8938,189.4457 748.6125,190.4145 Q749.3313,191.3676 750.925,191.3676 Q751.5188,191.3676 752.1438,191.2114 Q752.7688,191.0551 753.5969,190.6801 L753.5969,192.8989 Q752.8625,193.2114 752.0656,193.3676 Q751.2844,193.5239 750.5188,193.5239 Z " fill="#000000"/><text fill="#000000" font-family="sans-serif" font-size="14" lengthAdjust="spacing" textLength="86" x="765.05" y="192.034">RoundResult</text><line style="stroke:#181818;stroke-width:0.5;" x1="737.05" x2="853.05" y1="202.602" y2="202.602"/><line style="stroke:#181818;stroke-width:0.5;" x1="737.05" x2="853.05" y1="210.602" y2="210.602"/></g><!--MD5=[a2a82e9e86ce8fa6581c735f8e4ee41e]
link ui to Selection_reader--><g id="link_ui_Selection_reader"><path codeLine="7" d="M267.24,212.162 C243.94,229.082 207.43,255.582 180.2,275.362 " fill="none" id="ui-to-Selection_reader" style="stroke:#181818;stroke-width:1.0;"/><polygon fill="#181818" points="175.91,278.472,185.5452,276.4316,179.9592,275.5388,180.8521,269.9528,175.91,278.472" style="stroke:#181818;stroke-width:1.0;"/></g><!--MD5=[6d97f351418d7c3a8687e09c5ced8393]
link ui to Report--><g id="link_ui_Report"><path codeLine="8" d="M290.05,218.602 C290.05,234.602 290.05,256.052 290.05,273.132 " fill="none" id="ui-to-Report" style="stroke:#181818;stroke-width:1.0;"/><polygon fill="#181818" points="290.05,278.282,294.05,269.282,290.05,273.282,286.05,269.282,290.05,278.282" style="stroke:#181818;stroke-width:1.0;"/></g><!--MD5=[d0377ca7ec7de8c716e1526b5fa44f48]
link start to ui--><g id="link_start_ui"><path codeLine="9" d="M290.05,92.632 C290.05,113.122 290.05,143.162 290.05,165.152 " fill="none" id="start-to-ui" style="stroke:#181818;stroke-width:1.0;"/><polygon fill="#181818" points="290.05,170.272,294.05,161.272,290.05,165.272,286.05,161.272,290.05,170.272" style="stroke:#181818;stroke-width:1.0;"/></g><!--MD5=[4266f5d470a7f03b38dda50660b09403]
link ui.package to resources--><!--MD5=[e4ce77f6cf6ac9a43388c992df510d51]
link Round to RPS_Object--><g id="link_Round_RPS_Object"><path codeLine="30" d="M775.2,326.792 C768.43,341.002 757.6,358.062 742.05,366.602 C706.5,386.132 413.6,357.012 377.05,374.602 C352.08,386.612 332.73,412.032 320.58,431.962 " fill="none" id="Round-to-RPS_Object" style="stroke:#008000;stroke-width:1.0;"/><polygon fill="#008000" points="317.94,436.382,325.9782,430.691,320.4957,432.0845,319.1022,426.6019,317.94,436.382" style="stroke:#008000;stroke-width:1.0;"/></g><!--MD5=[9bb17a1d4c9309184c35655bc81b0ed0]
link Round to Rules--><g id="link_Round_Rules"><path codeLine="31" d="M775.15,326.722 C768.38,340.902 757.54,357.952 742.05,366.602 C720.5,378.642 542.84,365.132 520.05,374.602 C491.04,386.652 465.64,412.412 449.1,432.432 " fill="none" id="Round-to-Rules" style="stroke:#008000;stroke-width:1.0;"/><polygon fill="#008000" points="445.92,436.352,454.6899,431.8699,449.0643,432.4644,448.4698,426.8389,445.92,436.352" style="stroke:#008000;stroke-width:1.0;"/></g><!--MD5=[e68dfc85746bbd5a29d9f7bc22a9be62]
link ui to RockPaperScissors--><g id="link_ui_RockPaperScissors"><path codeLine="32" d="M311.41,218.902 C349.06,258.092 431.67,335.952 520.05,366.602 C564.59,382.052 687.87,358.132 732.05,374.602 C764.17,386.572 793.98,412.342 813.75,432.382 " fill="none" id="ui-to-RockPaperScissors" style="stroke:#181818;stroke-width:1.0;"/><polygon fill="#181818" points="817.57,436.312,814.1648,427.0705,814.0848,432.7268,808.4285,432.6468,817.57,436.312" style="stroke:#181818;stroke-width:1.0;"/></g><!--MD5=[872ccb9d1ff1fffe9d0cb8968b2c18e9]
reverse link Instructions to RockPaperScissors--><g id="link_Instructions_RockPaperScissors"><path codeLine="33" d="M178.47,432.172 C191.67,413.032 211.53,388.782 235.05,374.602 C241.88,370.482 244.62,371.492 252.55,370.602 C278.05,367.722 689.05,367.722 714.55,370.602 C758.05,375.512 796.78,411.482 818.82,436.432 " fill="none" id="Instructions-backto-RockPaperScissors" style="stroke:#008000;stroke-width:1.0;"/><polygon fill="#008000" points="175.59,436.422,183.9644,431.2384,178.4062,432.2905,177.3541,426.7324,175.59,436.422" style="stroke:#008000;stroke-width:1.0;"/></g><!--MD5=[007f609877bcf0924523a081dd3358e7]
reverse link Selection_reader to Player--><g id="link_Selection_reader_Player"><path codeLine="34" d="M94.77,329.722 C78.39,341.132 62.04,356.172 53.05,374.602 C23.03,436.112 6,478.892 53.05,528.602 C103.16,581.532 637.93,544.692 708.05,564.602 C723.52,568.992 739.33,576.812 752.7,584.592 " fill="none" id="Selection_reader-backto-Player" style="stroke:#181818;stroke-width:1.0;"/><polygon fill="#181818" points="98.93,326.892,89.2376,328.6405,94.794,329.7016,93.733,335.258,98.93,326.892" style="stroke:#181818;stroke-width:1.0;"/></g><!--MD5=[85578db0dedecd19f08d88d07afb6dc7]
reverse link SimpleRPS to markovRPS--><g id="link_SimpleRPS_markovRPS"><path codeLine="35" d="M574.07,342.372 C566.69,352.152 560.02,363.152 556.05,374.602 C533.62,439.262 535.01,463.472 556.05,528.602 C562.86,549.682 577.63,569.872 590.42,584.572 " fill="none" id="SimpleRPS-backto-markovRPS" style="stroke:#181818;stroke-width:1.0;"/><polygon fill="none" points="569.01,337.512,587.24,326.722,579.72,346.532,569.01,337.512" style="stroke:#181818;stroke-width:1.0;"/></g><!--MD5=[ee5a16f73a56c862532c55dace5c29c7]
reverse link SimpleRPS to multiAi--><g id="link_SimpleRPS_multiAi"><path codeLine="36" d="M618.92,346.452 C623.58,375.522 629.56,412.832 633.35,436.492 " fill="none" id="SimpleRPS-backto-multiAi" style="stroke:#181818;stroke-width:1.0;"/><polygon fill="none" points="611.99,347.472,615.74,326.622,625.82,345.262,611.99,347.472" style="stroke:#181818;stroke-width:1.0;"/></g><!--MD5=[a3ba141b10437fc03ef536ae2b4e00fb]
link multiAi to markovRPS--><g id="link_multiAi_markovRPS"><path codeLine="37" d="M633.25,484.732 C629.02,510.472 622.18,552.052 617.65,579.602 " fill="none" id="multiAi-to-markovRPS" style="stroke:#181818;stroke-width:1.0;"/><polygon fill="#181818" points="616.84,584.572,622.2303,576.3291,617.6411,579.6366,614.3337,575.0474,616.84,584.572" style="stroke:#181818;stroke-width:1.0;"/><text fill="#000000" font-family="sans-serif" font-size="13" lengthAdjust="spacing" textLength="7" x="614.7525" y="506.8022">1</text><text fill="#000000" font-family="sans-serif" font-size="13" lengthAdjust="spacing" textLength="27" x="587.2304" y="572.8214">1..10</text></g><!--MD5=[36f82f00a883bc2223e635ef1868949f]
reverse link multiAi to Player--><g id="link_multiAi_Player"><path codeLine="38" d="M664.54,488.352 C692.86,515.922 736.56,558.462 763.39,584.572 " fill="none" id="multiAi-backto-Player" style="stroke:#181818;stroke-width:1.0;"/><polygon fill="#181818" points="660.82,484.732,664.4852,493.8735,664.4052,488.2172,670.0615,488.1372,660.82,484.732" style="stroke:#181818;stroke-width:1.0;"/></g><!--MD5=[2ec9fe0dcbe6aaba2bacdaea9d491e53]
link RockPaperScissors to Player--><g id="link_RockPaperScissors_Player"><path codeLine="46" d="M829.97,484.732 C820.98,510.472 806.46,552.052 796.83,579.602 " fill="none" id="RockPaperScissors-to-Player" style="stroke:#181818;stroke-width:1.0;"/><polygon fill="#181818" points="795.09,584.572,801.8289,577.3896,796.7354,579.8505,794.2745,574.7569,795.09,584.572" style="stroke:#181818;stroke-width:1.0;"/><text fill="#000000" font-family="sans-serif" font-size="13" lengthAdjust="spacing" textLength="7" x="804.7315" y="506.8022">1</text><text fill="#000000" font-family="sans-serif" font-size="13" lengthAdjust="spacing" textLength="7" x="789.4445" y="572.8214">2</text></g><!--MD5=[813ecec4a77d48b620b9680659aad6f8]
reverse link Round to RockPaperScissors--><g id="link_Round_RockPaperScissors"><path codeLine="47" d="M793.76,331.642 C804.13,361.612 820.38,408.562 830.05,436.492 " fill="none" id="Round-backto-RockPaperScissors" style="stroke:#181818;stroke-width:1.0;"/><polygon fill="#181818" points="792.02,326.622,791.1952,336.4362,793.6609,331.345,798.7521,333.8107,792.02,326.622" style="stroke:#181818;stroke-width:1.0;"/></g><!--MD5=[d0567f6b65b5e642bbcd60a207f11c8d]
reverse link RoundResult to Round--><g id="link_RoundResult_Round"><path codeLine="48" d="M792.13,223.732 C790.36,240.752 788.14,262.202 786.47,278.282 " fill="none" id="RoundResult-backto-Round" style="stroke:#181818;stroke-width:1.0;"/><polygon fill="#181818" points="792.66,218.602,787.7551,227.1426,792.1455,223.5754,795.7127,227.9658,792.66,218.602" style="stroke:#181818;stroke-width:1.0;"/></g><!--MD5=[6567caf17841cc60e8ad46091ccc0ba3]
@startuml class_diagram

package src {
    class start


    package ui.package {
        ui - -> Selection_reader
        ui - -> Report
        start - -> ui
        class ui {}
        class Selection_reader
        class Report
    }
    package resources  {
        class Rules
        class RPS_Object
        class Instructions {}
    }



    ui.package -[hidden]- - resources

    package engine {
        together {
            class RockPaperScissors
            class Round
            class RoundResult
        }
        Round - -> RPS_Object #Green
        Round - -> Rules #Green
        ui - -> RockPaperScissors
        Instructions <- - RockPaperScissors #Green
        Selection_reader <- - Player
        SimpleRPS <|- - markovRPS
        SimpleRPS <|- - multiAi
        multiAi "1" - -> "1..10" markovRPS
        multiAi <- - Player

        class SimpleRPS {
        ' get_object()
        ' get_points()
        ' update()
        }

        RockPaperScissors "1" - -> "2" Player
        Round <- - RockPaperScissors
        RoundResult <- - Round


    }
}
@enduml

@startuml class_diagram

package src {
    class start


    package ui.package {
        ui - -> Selection_reader
        ui - -> Report
        start - -> ui
        class ui {}
        class Selection_reader
        class Report
    }
    package resources  {
        class Rules
        class RPS_Object
        class Instructions {}
    }



    ui.package -[hidden]- - resources

    package engine {
        together {
            class RockPaperScissors
            class Round
            class RoundResult
        }
        Round - -> RPS_Object #Green
        Round - -> Rules #Green
        ui - -> RockPaperScissors
        Instructions <- - RockPaperScissors #Green
        Selection_reader <- - Player
        SimpleRPS <|- - markovRPS
        SimpleRPS <|- - multiAi
        multiAi "1" - -> "1..10" markovRPS
        multiAi <- - Player

        class SimpleRPS {
        }

        RockPaperScissors "1" - -> "2" Player
        Round <- - RockPaperScissors
        RoundResult <- - Round


    }
}
@enduml

PlantUML version 1.2022.5(Sat Apr 30 13:55:52 EEST 2022)
(GPL source distribution)
Java Runtime: OpenJDK Runtime Environment
JVM: OpenJDK 64-Bit Server VM
Default Encoding: UTF-8
Language: en
Country: US
--></g></svg>